<?xml version="1.0" encoding="UTF-8" standalone="no"?>
<!-- Created with Inkscape (http://www.inkscape.org/) -->

<svg
   width="39.12648mm"
   height="55.606598mm"
   viewBox="0 0 39.12648 55.606598"
   version="1.1"
   id="svg5"
   inkscape:version="1.2.2 (b0a8486541, 2022-12-01)"
   sodipodi:docname="help.svg"
   xmlns:inkscape="http://www.inkscape.org/namespaces/inkscape"
   xmlns:sodipodi="http://sodipodi.sourceforge.net/DTD/sodipodi-0.dtd"
   xmlns="http://www.w3.org/2000/svg"
   xmlns:svg="http://www.w3.org/2000/svg">
  <sodipodi:namedview
     id="namedview7"
     pagecolor="#ffffff"
     bordercolor="#000000"
     borderopacity="0.25"
     inkscape:showpageshadow="2"
     inkscape:pageopacity="0.0"
     inkscape:pagecheckerboard="0"
     inkscape:deskcolor="#d1d1d1"
     inkscape:document-units="mm"
     showgrid="false"
     inkscape:zoom="1.4912879"
     inkscape:cx="159.5936"
     inkscape:cy="2.3469647"
     inkscape:window-width="1920"
     inkscape:window-height="1010"
     inkscape:window-x="0"
     inkscape:window-y="0"
     inkscape:window-maximized="1"
     inkscape:current-layer="layer1" />
  <defs
     id="defs2" />
  <g
     inkscape:label="Layer 1"
     inkscape:groupmode="layer"
     id="layer1"
     transform="translate(-17.399241,-126.71069)">
    <path
       style="fill:none;stroke:#ff0000;stroke-width:0.592759"
       d="m 28.566951,163.5599 c -0.4709,0.22556 -0.904441,0.55712 -1.412706,0.67669 -0.23736,0.0558 -0.487693,-0.0765 -0.709676,-0.17742 -1.304554,-0.59298 -2.206061,-1.55546 -2.332019,-3.0553 -0.09241,-1.10035 0.919315,-2.05691 1.782121,-2.48862 1.15536,-0.5781 2.260538,-0.97482 3.545863,-0.58922 0.820743,0.24622 0.6302,0.37731 1.241935,0.88709 0.163809,0.13651 0.381482,0.20407 0.53226,0.35485 0.904576,0.90457 0.638074,2.17245 -0.354841,2.83439 -0.732059,0.48804 -1.479261,1.23124 -2.292937,1.55754 -0.522317,0.20946 -1.096621,0.25513 -1.638215,0.40799 -1.107236,0.31252 -1.555586,0.90533 -2.460914,0"
       id="path247"
       inkscape:export-filename="help.png"
       inkscape:export-xdpi="96"
       inkscape:export-ydpi="96" />
    <path
       style="fill:none;stroke:#ff0000;stroke-width:0.592759"
       d="m 28.63669,164.62427 c 0.110842,1.82645 -0.194064,3.58773 -0.550169,5.35341 -0.02339,0.11594 0.05091,0.24807 0,0.35484 -0.06561,0.13761 -0.249799,0.18989 -0.323393,0.3234 -0.630623,1.14406 -1.086397,2.3776 -1.694341,3.53387 -0.776146,1.85011 -2.032297,3.42973 -2.963328,5.19137 -0.0064,0.0121 -0.786649,2.08757 -1.273414,2.6053 -0.191987,0.2042 0,-0.56056 0,-0.84084"
       id="path249" />
    <path
       style="fill:none;stroke:#ff0000;stroke-width:0.592759"
       d="m 27.272551,172.30454 c 0.230891,0.34351 0.483624,0.6733 0.692677,1.03052 0.429593,0.73406 0.913669,1.43873 1.290166,2.20139 1.711862,3.46769 -0.476073,-0.006 1.362157,2.75266 0.402823,0.60454 0.204846,0.38418 0.533906,0.71298 0.05443,0.0544 -0.108832,-0.10883 -0.163246,-0.16325"
       id="path251" />
    <path
       style="fill:none;stroke:#ff0000;stroke-width:0.592759"
       d="m 27.021237,165.45248 c -2.378867,0.67447 -4.372608,2.41059 -6.520314,3.57672 -0.659721,0.3582 -1.366895,0.62166 -2.059338,0.9116 -0.555288,0.23251 -0.760052,0.2218 -0.752787,0.19253 0.0625,-0.25174 0.232004,-0.464 0.348006,-0.69601"
       id="path253" />
    <path
       style="fill:none;stroke:#ff0000;stroke-width:0.592759"
       d="m 27.504622,163.65708 c 2.369924,0.78092 5.30469,2.17042 7.095141,3.96087"
       id="path255" />
    <path
       style="fill:none;stroke:#ff0000;stroke-width:0.592759"
       d="m 30.39176,157.58613 c 0.332978,-0.66595 1.000804,-1.33531 1.181586,-2.05636 0.0428,-0.17069 -0.09789,-0.38168 0,-0.52792 0.09305,-0.139 0.268779,-0.2114 0.354839,-0.35484 0.463229,-0.77204 0.02195,-0.26468 0.177419,-0.88275 0.133582,-0.53106 0.845784,-1.31187 0,-1.76733 -0.446479,-0.24044 -0.970327,-0.29509 -1.45549,-0.44263 -0.732758,-0.022 -1.483563,0.097 -2.198272,-0.0662 -0.701667,-0.16015 -3.3571,-1.85753 -3.653145,-2.17053 -1.132457,-1.19731 -1.368659,-3.62122 -1.461479,-5.15563 -0.10369,-1.71417 -0.157189,-3.52343 0.410877,-5.16521 0.405453,-1.17181 0.767633,-1.77267 1.461664,-2.73134 1.160684,-1.60328 2.532222,-3.46721 4.135362,-4.70508 0.418311,-0.32299 0.924123,-0.5135 1.37696,-0.78599 2.849877,-1.71488 5.51874,-2.7759 8.86461,-3.09171 4.556991,-0.43014 9.000972,0.78779 13.125591,2.55024 0.707006,0.30211 1.411573,0.61024 2.110007,0.93168 0.380132,0.17494 0.825677,0.26468 1.124971,0.55714 0.659551,0.64448 0.35655,2.59718 0.35655,3.30912 0,2.30982 -0.364366,3.86388 -1.092475,6.04807 -0.281697,0.84503 -0.379622,1.79249 -0.898078,2.5168 -0.417812,0.58371 -0.904074,1.12193 -1.431634,1.60871 -0.744712,0.68715 -2.412233,1.7416 -3.434816,1.9957 -1.271868,0.31605 -2.79959,0.2113 -3.989281,0.80405 -0.72013,0.35881 -0.148363,0.47606 -0.0084,1.03945 0.142626,0.57394 -0.04415,1.18444 0,1.77419 0.0937,1.25153 0.718219,3.201 -0.333505,4.25159 -1.803521,1.80158 -5.80586,0.65754 -7.879209,0.25994 -0.46568,-0.0893 -0.946465,-0.0974 -1.406666,-0.21163 -0.323402,-0.0803 -0.601808,-0.30709 -0.929372,-0.36819 -0.203973,-0.0381 -0.182986,1.19449 -0.325266,1.33676 -1.472823,0.35911 -2.70566,1.16674 -4.183348,1.4999 z"
       id="path285" />
    <path
       style="fill:none;stroke:#ff0000;stroke-width:0.592759"
       d="m 28.631806,141.28283 c 0.199718,1.06049 -0.293518,3.36111 0,4.25806 0.03611,0.11036 0.232235,0 0.348353,0"
       id="path257" />
    <path
       style="fill:none;stroke:#ff0000;stroke-width:0.592759"
       d="m 31.990321,139.5802 c 0,0.46424 0.02622,0.92923 0,1.39274 -0.04395,0.77712 -0.15988,1.54887 -0.210307,2.3256 -0.01974,0.30395 0.05064,0.61342 0,0.91378 -0.07572,0.44912 -0.284755,0.86744 -0.375555,1.31376 -0.01987,0.0976 0.157234,1.23427 -0.169762,1.23427 -0.126537,0 -0.226359,-0.11317 -0.339537,-0.16976"
       id="path259" />
    <path
       style="fill:none;stroke:#ff0000;stroke-width:0.592759"
       d="m 29.464227,144.49838 c 0.513678,-0.29496 1.027353,-0.58992 1.541029,-0.88488"
       id="path261" />
    <path
       style="fill:none;stroke:#ff0000;stroke-width:0.592759"
       d="m 34.144312,144.64053 c 0.430461,-0.17257 0.907111,-0.25807 1.291381,-0.51771 0.04801,-0.0324 0.160867,-2.81961 -1.05805,-0.70968 -0.208325,0.36061 -0.151527,0.81905 -0.233331,1.22739 -0.425212,2.12258 -0.371898,2.58504 1.629794,1.78436"
       id="path263" />
    <path
       style="fill:none;stroke:#ff0000;stroke-width:0.592759"
       d="m 38.455483,138.37124 c -0.02196,2.06323 -0.04963,4.11548 0.177419,6.15896 0.05629,0.50658 -0.203316,1.21604 0.177419,1.59677"
       id="path265" />
    <path
       style="fill:none;stroke:#ff0000;stroke-width:0.592759"
       d="m 41.355234,143.40928 c -0.04282,0.20135 0.263684,6.941 -0.532259,6.75889 -0.245277,-0.0561 -0.491948,-0.32598 -0.675307,-0.50934"
       id="path267" />
    <path
       style="fill:none;stroke:#ff0000;stroke-width:0.592759"
       d="m 40.844329,142.53067 c 0.255471,0.0225 1.29059,-0.1184 1.585653,0.17742 0.564394,0.56582 1.141119,2.25407 0.887098,3.01612 -0.404042,1.21214 -1.573882,0.98561 -1.573882,-0.53225"
       id="path269" />
    <path
       style="fill:none;stroke:#ff0000;stroke-width:0.592759"
       d="m 44.548869,136.0809 c 1.170443,2.14094 1.045652,3.72229 1.045652,6.00688"
       id="path271" />
    <path
       style="fill:none;stroke:#ff0000;stroke-width:0.592759"
       d="m 45.624993,145.90632 c -0.02389,-1.44979 0.644398,-1.82481 0,0 z"
       id="path275" />
  </g>
</svg>
