<svg xmlns="http://www.w3.org/2000/svg" xmlns:xlink="http://www.w3.org/1999/xlink" viewBox="0,0,256,256" width="50px" height="50px" fill-rule="nonzero"><g fill="#ffffff" fill-rule="nonzero" stroke="none" stroke-width="1" stroke-linecap="butt" stroke-linejoin="miter" stroke-miterlimit="10" stroke-dasharray="" stroke-dashoffset="0" font-family="none" font-weight="none" font-size="none" text-anchor="none" style="mix-blend-mode: normal"><g transform="scale(5.12,5.12)"><path d="M18.65234,3.04492c-4.27255,0.0353 -7.05641,1.98594 -7.23828,2.11719c-0.195,0.141 -0.33267,0.34803 -0.38867,0.58203l-3.23828,13.77344c-0.079,0.339 0.02348,0.69445 0.27148,0.93945c0.248,0.245 0.60636,0.34372 0.94336,0.26172c3.408,-1.077 8.57967,-1.22872 13.88867,1.73828c0.15,0.084 0.31733,0.12695 0.48633,0.12695c0.134,0 0.26853,-0.02608 0.39453,-0.08008c0.285,-0.123 0.49822,-0.37283 0.57422,-0.67383l3.79688,-14.88281c0.107,-0.418 -0.06569,-0.85784 -0.42969,-1.08984c-3.39675,-2.16563 -6.49702,-2.83368 -9.06055,-2.8125zM30.76563,8.19922c-0.15575,-0.016 -0.31339,0.00545 -0.46289,0.06445c-0.301,0.117 -0.52647,0.37059 -0.60547,0.68359l-3.77344,14.79297c-0.102,0.398 0.05077,0.81859 0.38477,1.05859c3.431,2.466 6.89813,3.20117 9.82813,3.20117c2.842,0 5.17838,-0.69045 6.48438,-1.18945c0.31,-0.118 0.54119,-0.38208 0.61719,-0.70508l3.73438,-15.87695c0.095,-0.405 -0.07102,-0.82559 -0.41602,-1.05859c-0.345,-0.231 -0.80062,-0.22542 -1.14062,0.01758c-0.252,0.179 -6.19108,4.46497 -14.20508,-0.83203c-0.1355,-0.088 -0.28956,-0.14025 -0.44531,-0.15625zM13.60352,22.02539c-2.757,0.07013 -5.01031,0.81742 -6.25781,1.29492c-0.311,0.118 -0.54119,0.38208 -0.61719,0.70508l-3.70312,15.74609c-0.017,0.075 -0.02539,0.19644 -0.02539,0.27344c0,0.374 0.20997,0.71472 0.54297,0.88672c0.329,0.17 1.03906,-0.07422 1.03906,-0.07422c0,0 5.87237,-4.35784 13.48437,0.41016c0.156,0.092 0.33081,0.13867 0.50781,0.13867c0.13,0 0.26177,-0.02417 0.38477,-0.07617c0.291,-0.121 0.50894,-0.37078 0.58594,-0.67578l3.76758,-14.77344c0.106,-0.419 -0.06573,-0.85684 -0.42773,-1.08984c-3.2625,-2.229 -6.52425,-2.83575 -9.28125,-2.76562zM25.93164,27.08398c-0.15413,-0.013 -0.31148,0.01081 -0.45898,0.07031c-0.295,0.12 -0.51575,0.37169 -0.59375,0.67969l-3.77148,14.7832c-0.104,0.403 0.05548,0.82741 0.39648,1.06641c3.695,2.582 7.08261,3.31641 9.72461,3.31641c0.862,0 1.64598,-0.08517 2.33398,-0.20117c3.058,-0.514 4.94639,-1.86292 5.02539,-1.91992c0.211,-0.153 0.35248,-0.42726 0.39648,-0.69727l3.19336,-13.56836c0.079,-0.339 -0.02248,-0.69445 -0.27148,-0.93945c-0.249,-0.245 -0.60641,-0.34472 -0.94141,-0.26172c-5.108,1.265 -10.17975,0.53936 -14.59375,-2.18164c-0.135,-0.0835 -0.28533,-0.13349 -0.43945,-0.14648z"></path></g></g></svg>